<?xml version="1.0" encoding="utf-8"?>
<!-- Generator: Adobe Illustrator 18.1.0, SVG Export Plug-In . SVG Version: 6.00 Build 0)  -->
<!DOCTYPE svg PUBLIC "-//W3C//DTD SVG 1.1//EN" "http://www.w3.org/Graphics/SVG/1.1/DTD/svg11.dtd">
<svg version="1.1" id="Layer_1" xmlns="http://www.w3.org/2000/svg" xmlns:xlink="http://www.w3.org/1999/xlink" x="0px" y="0px"
	 viewBox="0 0 100 40" enable-background="new 0 0 100 40" xml:space="preserve">
<g>
	<g>
		<path fill="#FFFFFF" d="M45.1,14.8c-1.6,0-3.3,0.3-4.8,0.9C38.7,7.6,31.5,1.4,22.9,1.4C13,1.4,5,9.4,5,19.2S13,37,22.9,37
			c0.5,0,1,0,1.5-0.1c3.3-0.3,3-1.6,3.1-4.9v-7.5c0-1,0-5-0.2-5.8c-0.4-1.3-2.6-1.2-3.6-1.2v-1l8.3-1.6v16.8c0,1.1,0,2.1,0.1,2.8
			c0.9-0.5,1.7-1.1,2.4-1.7c2.2,3.5,6.3,5.8,10.8,5.8c6.9,0,12.7-4.9,12.7-11.9C57.8,19.9,51.7,14.8,45.1,14.8z M29.1,9.2
			c-1.6,0-2.9-1.2-2.9-2.8c0-1.6,1.3-2.8,2.8-2.8c1.6,0,2.8,1.3,2.8,2.8C31.8,7.9,30.6,9.2,29.1,9.2z M45.4,37.4
			c-5.3,0-7.1-4.2-7.5-8.6c-0.1-0.7-0.1-1.4-0.1-2.2c0-3.1,0.7-6.8,2.9-8.9c1-1,2.4-1.6,4.3-1.6c6.2,0,7.6,5.9,7.6,10.9
			C52.6,31.6,51.1,37.4,45.4,37.4z M65.6,35c-0.3-0.7-0.5-1.9-0.5-3.2V17.9h6.5v-1.4h-6.5v-3.6c0-2,0-4.6,0.8-6.4
			c0.8-1.9,2.2-2.5,4.2-2.5c1.8,0,2.5,0.8,3.1,2.3C73.5,7,73.9,7.7,75,7.7c0.9,0,1.8-0.7,1.8-1.7c0-2.7-4.5-3.3-6.4-3.3
			c-7.3,0-9.8,4.2-9.8,10.9v2.8h-4.2v1.4h4.2v13.3c0,4.1,0.1,5.5-4.5,5.8v1c2.4-0.1,4.8-0.2,7.2-0.2c2.5,0.1,5,0.2,7.5,0.2v-1
			C68.9,36.8,66.4,37.2,65.6,35z M94,34.5c-0.6,0.7-1.1,1.7-2.2,1.7c-2.1,0-1.8-3.9-1.8-5.2v-8.6c0-6-2.7-7.5-8.5-7.5
			c-2.7,0-9.7,0.7-9.7,4.6c0,1.2,0.8,1.9,2,1.9c1.3,0,2-1.2,2.1-2.3c0.2-2.8,2.3-3,4.9-3c4.3,0,4.6,2.5,4.6,6.1
			c0,0.6,0.1,1.3-0.4,1.5l-5.2,2.5c-3.4,1.5-8.4,3.4-8.4,7.8c0,2.9,2.7,4.6,5.5,4.6c3.3,0,6.3-1.7,8.8-3.7c0.5,2.1,2.4,3.7,4.5,3.7
			c1.9,0,3.9-1.8,4.7-3.5L94,34.5z M85.5,33.5c-1.5,1.4-3.7,3-5.8,3c-2.2,0-3.4-1.8-3.4-3.8c0-4.2,6-6.2,9.2-7.8V33.5z"/>
	</g>
</g>
</svg>
